<mxfile host="app.diagrams.net" modified="2023-05-23T23:32:48.540Z" agent="Mozilla/5.0 (Windows NT 10.0; Win64; x64) AppleWebKit/537.36 (KHTML, like Gecko) Chrome/113.0.0.0 Safari/537.36" etag="hu1hzaI0KoIGJ-Iu7VRn" version="21.3.2" type="device">
  <diagram name="Página-1" id="B0rmKuiLly4ge440Wb1F">
    <mxGraphModel dx="778" dy="342" grid="1" gridSize="10" guides="1" tooltips="1" connect="1" arrows="1" fold="1" page="1" pageScale="1" pageWidth="827" pageHeight="1169" math="0" shadow="0">
      <root>
        <mxCell id="0" />
        <mxCell id="1" parent="0" />
        <mxCell id="14sSxEgc2_mb-5tu6Hi1-2" value="«class»&lt;br&gt;&lt;b&gt;Task&lt;/b&gt;" style="html=1;whiteSpace=wrap;" vertex="1" parent="1">
          <mxGeometry x="140" y="30" width="110" height="50" as="geometry" />
        </mxCell>
        <mxCell id="14sSxEgc2_mb-5tu6Hi1-8" style="edgeStyle=orthogonalEdgeStyle;rounded=0;orthogonalLoop=1;jettySize=auto;html=1;entryX=0.404;entryY=1.073;entryDx=0;entryDy=0;entryPerimeter=0;shape=flexArrow;" edge="1" parent="1" source="14sSxEgc2_mb-5tu6Hi1-3" target="14sSxEgc2_mb-5tu6Hi1-2">
          <mxGeometry relative="1" as="geometry" />
        </mxCell>
        <mxCell id="14sSxEgc2_mb-5tu6Hi1-3" value="«class»&lt;br&gt;&lt;b&gt;ListTask&lt;/b&gt;" style="html=1;whiteSpace=wrap;" vertex="1" parent="1">
          <mxGeometry x="260" y="120" width="110" height="50" as="geometry" />
        </mxCell>
        <mxCell id="14sSxEgc2_mb-5tu6Hi1-5" style="edgeStyle=orthogonalEdgeStyle;rounded=0;orthogonalLoop=1;jettySize=auto;html=1;entryX=1;entryY=0.5;entryDx=0;entryDy=0;shape=link;" edge="1" parent="1" source="14sSxEgc2_mb-5tu6Hi1-4" target="14sSxEgc2_mb-5tu6Hi1-3">
          <mxGeometry relative="1" as="geometry" />
        </mxCell>
        <mxCell id="14sSxEgc2_mb-5tu6Hi1-4" value="«native interface»&lt;br&gt;&lt;b&gt;Iterator&lt;/b&gt;" style="html=1;whiteSpace=wrap;" vertex="1" parent="1">
          <mxGeometry x="370" y="30" width="110" height="50" as="geometry" />
        </mxCell>
        <mxCell id="14sSxEgc2_mb-5tu6Hi1-11" style="edgeStyle=orthogonalEdgeStyle;rounded=0;orthogonalLoop=1;jettySize=auto;html=1;entryX=0.5;entryY=1;entryDx=0;entryDy=0;shape=flexArrow;" edge="1" parent="1" source="14sSxEgc2_mb-5tu6Hi1-9" target="14sSxEgc2_mb-5tu6Hi1-3">
          <mxGeometry relative="1" as="geometry" />
        </mxCell>
        <mxCell id="14sSxEgc2_mb-5tu6Hi1-12" style="edgeStyle=orthogonalEdgeStyle;rounded=0;orthogonalLoop=1;jettySize=auto;html=1;shape=flexArrow;" edge="1" parent="1" source="14sSxEgc2_mb-5tu6Hi1-9" target="14sSxEgc2_mb-5tu6Hi1-13">
          <mxGeometry relative="1" as="geometry">
            <mxPoint x="440" y="265" as="targetPoint" />
          </mxGeometry>
        </mxCell>
        <mxCell id="14sSxEgc2_mb-5tu6Hi1-9" value="«class»&lt;br&gt;&lt;b&gt;Main&lt;/b&gt;" style="html=1;whiteSpace=wrap;" vertex="1" parent="1">
          <mxGeometry x="260" y="240" width="110" height="50" as="geometry" />
        </mxCell>
        <mxCell id="14sSxEgc2_mb-5tu6Hi1-13" value="Client" style="shape=umlActor;verticalLabelPosition=bottom;verticalAlign=top;html=1;" vertex="1" parent="1">
          <mxGeometry x="450" y="235" width="30" height="60" as="geometry" />
        </mxCell>
      </root>
    </mxGraphModel>
  </diagram>
</mxfile>
